<svg xmlns="http://www.w3.org/2000/svg" viewBox="0 0 400 400">
  <defs>
    <linearGradient id="classily-a" x1="76.809%" x2="37.06%" y1="-4.457%" y2="64.817%">
      <stop offset="0%" stop-color="#220DE6"/>
      <stop offset="100%" stop-color="#8434A0"/>
    </linearGradient>
    <linearGradient id="classily-b" x1="100%" x2="0%" y1="50%" y2="50%">
      <stop offset="0%" stop-color="#900D79"/>
      <stop offset="100%" stop-color="#C33462"/>
    </linearGradient>
  </defs>
  <g fill="none" fill-rule="evenodd">
    <path id="classilyHandle" fill="url(#classily-a)" fill-rule="nonzero" d="M176.697998,284.413687 L176.693291,284.412425 C197.032994,170.824336 207.520392,114.115378 208.155486,114.285551 C208.198455,114.129186 208.239489,113.972046 208.281586,113.81494 C213.644091,93.8017972 234.215119,81.9251082 254.228262,87.2876142 C274.241405,92.6501202 286.118094,113.221147 280.755588,133.234291 C280.713492,133.391396 280.670458,133.548001 280.626495,133.704099 L280.613689,133.749461 C280.160387,135.351413 279.609137,136.899983 278.968199,138.390401 L222.813111,296.770194 L222.808404,296.768933 C219.203509,309.220177 206.27881,316.55098 193.700416,313.180609 C181.122023,309.810239 173.594306,296.999228 176.697998,284.413687 Z"/>
    <g fill-rule="nonzero">
      <path fill="url(#classily-b)" d="M74.9837654,200 L325.016235,200 C329.425546,200 333,203.569347 333,207.97236 L333,306.02764 C333,310.430653 329.425546,314 325.016235,314 L74.9837654,314 C70.5744535,314 67,310.430653 67,306.02764 L67,207.97236 C67,203.569347 70.5744535,200 74.9837654,200 Z"/>
      <path fill="#FFF" d="M93.048,256.8 C93.048,255.263992 93.3119974,253.824007 93.84,252.48 C94.3680026,251.135993 95.1119952,249.968005 96.072,248.976 C97.0320048,247.983995 98.1999931,247.200003 99.576,246.624 C100.952007,246.047997 102.487992,245.76 104.184,245.76 C105.016004,245.76 105.759997,245.815999 106.416,245.928 C107.072003,246.040001 107.623998,246.175999 108.072,246.336 C108.616003,246.496001 109.079998,246.687999 109.464,246.912 L110.136,245.76 C109.623997,245.535999 109.080003,245.328001 108.504,245.136 C107.959997,244.975999 107.336004,244.832001 106.632,244.704 C105.927996,244.575999 105.112005,244.512 104.184,244.512 C102.551992,244.512 100.992007,244.799997 99.504,245.376 C98.0159926,245.952003 96.7040057,246.775995 95.568,247.848 C94.4319943,248.920005 93.5200034,250.215992 92.832,251.736 C92.1439966,253.256008 91.8,254.943991 91.8,256.8 C91.8,258.688009 92.1279967,260.383992 92.784,261.888 C93.4400033,263.392008 94.3439942,264.679995 95.496,265.752 C96.6480058,266.824005 97.9919923,267.647997 99.528,268.224 C101.064008,268.800003 102.695991,269.088 104.424,269.088 C105.384005,269.088 106.247996,269.008001 107.016,268.848 C107.784004,268.687999 108.439997,268.512001 108.984,268.32 C109.592003,268.095999 110.135998,267.840001 110.616,267.552 L109.944,266.4 C109.527998,266.688001 109.048003,266.927999 108.504,267.12 C108.023998,267.312001 107.448003,267.479999 106.776,267.624 C106.103997,267.768001 105.320004,267.84 104.424,267.84 C102.663991,267.84 101.080007,267.552003 99.672,266.976 C98.263993,266.399997 97.0720049,265.616005 96.096,264.624 C95.1199951,263.631995 94.3680026,262.464007 93.84,261.12 C93.3119974,259.775993 93.048,258.336008 93.048,256.8 Z M87,256.8 C87,254.239987 87.4479955,251.92801 88.344,249.864 C89.2400045,247.79999 90.4559923,246.032007 91.992,244.56 C93.5280077,243.087993 95.3199898,241.960004 97.368,241.176 C99.4160102,240.391996 101.591988,240 103.896,240 C105.720009,240 107.343993,240.175998 108.768,240.528 C110.192007,240.880002 111.415995,241.279998 112.44,241.728 C113.624006,242.240003 114.647996,242.799997 115.512,243.408 L110.472,252.288 C109.959997,251.903998 109.400003,251.536002 108.792,251.184 C108.247997,250.927999 107.600004,250.680001 106.848,250.44 C106.095996,250.199999 105.240005,250.08 104.28,250.08 C103.287995,250.08 102.376004,250.255998 101.544,250.608 C100.711996,250.960002 99.9840031,251.439997 99.36,252.048 C98.7359969,252.656003 98.2480018,253.367996 97.896,254.184 C97.5439982,255.000004 97.368,255.871995 97.368,256.8 C97.368,257.728005 97.5519982,258.599996 97.92,259.416 C98.2880018,260.232004 98.7919968,260.943997 99.432,261.552 C100.072003,262.160003 100.823996,262.639998 101.688,262.992 C102.552004,263.344002 103.495995,263.52 104.52,263.52 C105.544005,263.52 106.455996,263.392001 107.256,263.136 C108.056004,262.879999 108.727997,262.592002 109.272,262.272 C109.912003,261.919998 110.471998,261.504002 110.952,261.024 L115.992,269.904 C115.127996,270.608004 114.104006,271.231997 112.92,271.776 C111.895995,272.224002 110.664007,272.639998 109.224,273.024 C107.783993,273.408002 106.136009,273.6 104.28,273.6 C101.783988,273.6 99.4800106,273.192004 97.368,272.376 C95.2559894,271.559996 93.4320077,270.416007 91.896,268.944 C90.3599923,267.471993 89.1600043,265.70401 88.296,263.64 C87.4319957,261.57599 87,259.296012 87,256.8 Z M117.192,240.768 L127.848,240.768 L127.848,264.384 L136.68,264.384 L136.68,272.784 L117.192,272.784 L117.192,240.768 Z M133.992,268.944 L133.992,267.792 L123.24,267.792 L123.24,244.608 L121.992,244.608 L121.992,268.944 L133.992,268.944 Z M147.864,240.768 L155.544,240.768 L167.688,272.784 L157.608,272.784 L156.552,269.904 L146.856,269.904 L145.8,272.784 L135.72,272.784 L147.864,240.768 Z M153.864,262.848 L151.704,257.232 L149.544,262.848 L153.864,262.848 Z M142.872,268.944 L143.784,266.544 L159.624,266.544 L160.536,268.944 L161.88,268.944 L152.616,244.608 L150.792,244.608 L141.528,268.944 L142.872,268.944 Z M151.704,245.76 L159.192,265.392 L144.216,265.392 L151.704,245.76 Z M171.576,268.608 C172.024002,268.704 172.503997,268.784 173.016,268.848 C173.464002,268.912 173.935998,268.968 174.432,269.016 C174.928002,269.064 175.431997,269.088 175.944,269.088 C176.840004,269.088 177.711996,268.984001 178.56,268.776 C179.408004,268.567999 180.167997,268.224002 180.84,267.744 C181.512003,267.263998 182.047998,266.648004 182.448,265.896 C182.848002,265.143996 183.048,264.224005 183.048,263.136 C183.048,262.207995 182.816002,261.328004 182.352,260.496 C181.887998,259.663996 181.296004,258.864004 180.576,258.096 C179.855996,257.327996 179.088004,256.592004 178.272,255.888 C177.455996,255.183996 176.688004,254.472004 175.968,253.752 C175.247996,253.031996 174.656002,252.312004 174.192,251.592 C173.727998,250.871996 173.496,250.128004 173.496,249.36 C173.496,248.207994 173.863996,247.320003 174.6,246.696 C175.336004,246.071997 176.519992,245.76 178.152,245.76 C178.408001,245.76 178.671999,245.768 178.944,245.784 C179.216001,245.8 179.479999,245.824 179.736,245.856 C179.992001,245.888 180.247999,245.904 180.504,245.904 L180.504,244.656 C180.279999,244.656 180.040001,244.64 179.784,244.608 C179.559999,244.576 179.312001,244.552 179.04,244.536 C178.767999,244.52 178.488001,244.512 178.2,244.512 C176.471991,244.512 175.048006,244.903996 173.928,245.688 C172.807994,246.472004 172.248,247.695992 172.248,249.36 C172.248,250.256004 172.479998,251.095996 172.944,251.88 C173.408002,252.664004 173.999996,253.431996 174.72,254.184 C175.440004,254.936004 176.207996,255.663996 177.024,256.368 C177.840004,257.072004 178.607996,257.783996 179.328,258.504 C180.048004,259.224004 180.639998,259.967996 181.104,260.736 C181.568002,261.504004 181.8,262.303996 181.8,263.136 C181.8,264.672008 181.280005,265.839996 180.24,266.64 C179.199995,267.440004 177.768009,267.84 175.944,267.84 C174.855995,267.84 173.864004,267.760001 172.968,267.6 C172.487998,267.536 172.024002,267.456 171.576,267.36 L171.576,268.608 Z M167.544,262.848 C168.248004,263.072001 168.983996,263.247999 169.752,263.376 C170.392003,263.536001 171.119996,263.664 171.936,263.76 C172.752004,263.856 173.575996,263.904 174.408,263.904 C175.880007,263.904 176.616,263.360005 176.616,262.272 C176.616,261.855998 176.392002,261.432002 175.944,261 C175.495998,260.567998 174.928003,260.088003 174.24,259.56 C173.551997,259.031997 172.816004,258.448003 172.032,257.808 C171.247996,257.167997 170.512003,256.432004 169.824,255.6 C169.135997,254.767996 168.568002,253.832005 168.12,252.792 C167.671998,251.751995 167.448,250.560007 167.448,249.216 C167.448,247.711992 167.719997,246.384006 168.264,245.232 C168.808003,244.079994 169.559995,243.120004 170.52,242.352 C171.480005,241.583996 172.607994,241.000002 173.904,240.6 C175.200006,240.199998 176.583993,240 178.056,240 C178.824004,240 179.591996,240.04 180.36,240.12 C181.128004,240.2 181.815997,240.272 182.424,240.336 C183.128004,240.432 183.815997,240.528 184.488,240.624 L184.488,249.6 C184.231999,249.568 183.944002,249.536 183.624,249.504 C183.367999,249.472 183.080002,249.44 182.76,249.408 C182.439998,249.376 182.104002,249.36 181.752,249.36 C181.559999,249.36 181.320001,249.368 181.032,249.384 C180.743999,249.4 180.472001,249.44 180.216,249.504 C179.959999,249.568 179.736001,249.679999 179.544,249.84 C179.351999,250.000001 179.256,250.223999 179.256,250.512 C179.256,250.768001 179.471998,251.087998 179.904,251.472 C180.336002,251.856002 180.863997,252.303997 181.488,252.816 C182.112003,253.328003 182.799996,253.919997 183.552,254.592 C184.304004,255.264003 184.991997,256.031996 185.616,256.896 C186.240003,257.760004 186.767998,258.735995 187.2,259.824 C187.632002,260.912005 187.848,262.127993 187.848,263.472 C187.848,264.880007 187.624002,266.199994 187.176,267.432 C186.727998,268.664006 186.032005,269.735995 185.088,270.648 C184.143995,271.560005 182.936007,272.279997 181.464,272.808 C179.991993,273.336003 178.24801,273.6 176.232,273.6 C175.015994,273.6 173.888005,273.544001 172.848,273.432 C171.807995,273.319999 170.888004,273.184001 170.088,273.024 C169.159995,272.863999 168.312004,272.672001 167.544,272.448 L167.544,262.848 Z M193.176,268.608 C193.624002,268.704 194.103997,268.784 194.616,268.848 C195.064002,268.912 195.535998,268.968 196.032,269.016 C196.528002,269.064 197.031997,269.088 197.544,269.088 C198.440004,269.088 199.311996,268.984001 200.16,268.776 C201.008004,268.567999 201.767997,268.224002 202.44,267.744 C203.112003,267.263998 203.647998,266.648004 204.048,265.896 C204.448002,265.143996 204.648,264.224005 204.648,263.136 C204.648,262.207995 204.416002,261.328004 203.952,260.496 C203.487998,259.663996 202.896004,258.864004 202.176,258.096 C201.455996,257.327996 200.688004,256.592004 199.872,255.888 C199.055996,255.183996 198.288004,254.472004 197.568,253.752 C196.847996,253.031996 196.256002,252.312004 195.792,251.592 C195.327998,250.871996 195.096,250.128004 195.096,249.36 C195.096,248.207994 195.463996,247.320003 196.2,246.696 C196.936004,246.071997 198.119992,245.76 199.752,245.76 C200.008001,245.76 200.271999,245.768 200.544,245.784 C200.816001,245.8 201.079999,245.824 201.336,245.856 C201.592001,245.888 201.847999,245.904 202.104,245.904 L202.104,244.656 C201.879999,244.656 201.640001,244.64 201.384,244.608 C201.159999,244.576 200.912001,244.552 200.64,244.536 C200.367999,244.52 200.088001,244.512 199.8,244.512 C198.071991,244.512 196.648006,244.903996 195.528,245.688 C194.407994,246.472004 193.848,247.695992 193.848,249.36 C193.848,250.256004 194.079998,251.095996 194.544,251.88 C195.008002,252.664004 195.599996,253.431996 196.32,254.184 C197.040004,254.936004 197.807996,255.663996 198.624,256.368 C199.440004,257.072004 200.207996,257.783996 200.928,258.504 C201.648004,259.224004 202.239998,259.967996 202.704,260.736 C203.168002,261.504004 203.4,262.303996 203.4,263.136 C203.4,264.672008 202.880005,265.839996 201.84,266.64 C200.799995,267.440004 199.368009,267.84 197.544,267.84 C196.455995,267.84 195.464004,267.760001 194.568,267.6 C194.087998,267.536 193.624002,267.456 193.176,267.36 L193.176,268.608 Z M189.144,262.848 C189.848004,263.072001 190.583996,263.247999 191.352,263.376 C191.992003,263.536001 192.719996,263.664 193.536,263.76 C194.352004,263.856 195.175996,263.904 196.008,263.904 C197.480007,263.904 198.216,263.360005 198.216,262.272 C198.216,261.855998 197.992002,261.432002 197.544,261 C197.095998,260.567998 196.528003,260.088003 195.84,259.56 C195.151997,259.031997 194.416004,258.448003 193.632,257.808 C192.847996,257.167997 192.112003,256.432004 191.424,255.6 C190.735997,254.767996 190.168002,253.832005 189.72,252.792 C189.271998,251.751995 189.048,250.560007 189.048,249.216 C189.048,247.711992 189.319997,246.384006 189.864,245.232 C190.408003,244.079994 191.159995,243.120004 192.12,242.352 C193.080005,241.583996 194.207994,241.000002 195.504,240.6 C196.800006,240.199998 198.183993,240 199.656,240 C200.424004,240 201.191996,240.04 201.96,240.12 C202.728004,240.2 203.415997,240.272 204.024,240.336 C204.728004,240.432 205.415997,240.528 206.088,240.624 L206.088,249.6 C205.831999,249.568 205.544002,249.536 205.224,249.504 C204.967999,249.472 204.680002,249.44 204.36,249.408 C204.039998,249.376 203.704002,249.36 203.352,249.36 C203.159999,249.36 202.920001,249.368 202.632,249.384 C202.343999,249.4 202.072001,249.44 201.816,249.504 C201.559999,249.568 201.336001,249.679999 201.144,249.84 C200.951999,250.000001 200.856,250.223999 200.856,250.512 C200.856,250.768001 201.071998,251.087998 201.504,251.472 C201.936002,251.856002 202.463997,252.303997 203.088,252.816 C203.712003,253.328003 204.399996,253.919997 205.152,254.592 C205.904004,255.264003 206.591997,256.031996 207.216,256.896 C207.840003,257.760004 208.367998,258.735995 208.8,259.824 C209.232002,260.912005 209.448,262.127993 209.448,263.472 C209.448,264.880007 209.224002,266.199994 208.776,267.432 C208.327998,268.664006 207.632005,269.735995 206.688,270.648 C205.743995,271.560005 204.536007,272.279997 203.064,272.808 C201.591993,273.336003 199.84801,273.6 197.832,273.6 C196.615994,273.6 195.488005,273.544001 194.448,273.432 C193.407995,273.319999 192.488004,273.184001 191.688,273.024 C190.759995,272.863999 189.912004,272.672001 189.144,272.448 L189.144,262.848 Z M211.608,240.768 L222.456,240.768 L222.456,272.784 L211.608,272.784 L211.608,240.768 Z M217.656,268.944 L217.656,244.608 L216.408,244.608 L216.408,268.944 L217.656,268.944 Z M225.816,240.768 L236.472,240.768 L236.472,264.384 L245.304,264.384 L245.304,272.784 L225.816,272.784 L225.816,240.768 Z M242.616,268.944 L242.616,267.792 L231.864,267.792 L231.864,244.608 L230.616,244.608 L230.616,268.944 L242.616,268.944 Z M248.76,259.008 L238.824,240.768 L250.2,240.768 L253.896,247.536 L257.544,240.768 L268.92,240.768 L258.984,259.008 L258.984,272.784 L248.76,272.784 L248.76,259.008 Z M254.52,268.944 L254.52,257.472 L261.528,244.608 L260.04,244.608 L253.896,255.984 L247.704,244.608 L246.264,244.608 L253.224,257.472 L253.224,268.944 L254.52,268.944 Z M263.4,264.768 L273.672,264.768 L273.672,272.784 L263.4,272.784 L263.4,264.768 Z M270.792,269.328 L270.792,268.224 L266.28,268.224 L266.28,269.328 L270.792,269.328 Z M275.112,265.104 L278.616,265.104 C279.640005,265.104 280.327998,264.912002 280.68,264.528 C281.032002,264.143998 281.208,263.600004 281.208,262.896 L281.208,240.768 L291.72,240.768 L291.72,264.672 C291.72,267.648015 291.040007,269.743994 289.68,270.96 C288.319993,272.176006 286.152015,272.784 283.176,272.784 L275.112,272.784 L275.112,265.104 Z M282.84,268.944 C284.408008,268.944 285.503997,268.600003 286.128,267.912 C286.752003,267.223997 287.064,266.192007 287.064,264.816 L287.064,244.608 L285.816,244.608 L285.816,264.816 C285.816,265.808005 285.640002,266.551998 285.288,267.048 C284.935998,267.544002 284.120006,267.792 282.84,267.792 L278.952,267.792 L278.952,268.944 L282.84,268.944 Z M298.152,268.608 C298.600002,268.704 299.079997,268.784 299.592,268.848 C300.040002,268.912 300.511998,268.968 301.008,269.016 C301.504002,269.064 302.007997,269.088 302.52,269.088 C303.416004,269.088 304.287996,268.984001 305.136,268.776 C305.984004,268.567999 306.743997,268.224002 307.416,267.744 C308.088003,267.263998 308.623998,266.648004 309.024,265.896 C309.424002,265.143996 309.624,264.224005 309.624,263.136 C309.624,262.207995 309.392002,261.328004 308.928,260.496 C308.463998,259.663996 307.872004,258.864004 307.152,258.096 C306.431996,257.327996 305.664004,256.592004 304.848,255.888 C304.031996,255.183996 303.264004,254.472004 302.544,253.752 C301.823996,253.031996 301.232002,252.312004 300.768,251.592 C300.303998,250.871996 300.072,250.128004 300.072,249.36 C300.072,248.207994 300.439996,247.320003 301.176,246.696 C301.912004,246.071997 303.095992,245.76 304.728,245.76 C304.984001,245.76 305.247999,245.768 305.52,245.784 C305.792001,245.8 306.055999,245.824 306.312,245.856 C306.568001,245.888 306.823999,245.904 307.08,245.904 L307.08,244.656 C306.855999,244.656 306.616001,244.64 306.36,244.608 C306.135999,244.576 305.888001,244.552 305.616,244.536 C305.343999,244.52 305.064001,244.512 304.776,244.512 C303.047991,244.512 301.624006,244.903996 300.504,245.688 C299.383994,246.472004 298.824,247.695992 298.824,249.36 C298.824,250.256004 299.055998,251.095996 299.52,251.88 C299.984002,252.664004 300.575996,253.431996 301.296,254.184 C302.016004,254.936004 302.783996,255.663996 303.6,256.368 C304.416004,257.072004 305.183996,257.783996 305.904,258.504 C306.624004,259.224004 307.215998,259.967996 307.68,260.736 C308.144002,261.504004 308.376,262.303996 308.376,263.136 C308.376,264.672008 307.856005,265.839996 306.816,266.64 C305.775995,267.440004 304.344009,267.84 302.52,267.84 C301.431995,267.84 300.440004,267.760001 299.544,267.6 C299.063998,267.536 298.600002,267.456 298.152,267.36 L298.152,268.608 Z M294.12,262.848 C294.824004,263.072001 295.559996,263.247999 296.328,263.376 C296.968003,263.536001 297.695996,263.664 298.512,263.76 C299.328004,263.856 300.151996,263.904 300.984,263.904 C302.456007,263.904 303.192,263.360005 303.192,262.272 C303.192,261.855998 302.968002,261.432002 302.52,261 C302.071998,260.567998 301.504003,260.088003 300.816,259.56 C300.127997,259.031997 299.392004,258.448003 298.608,257.808 C297.823996,257.167997 297.088003,256.432004 296.4,255.6 C295.711997,254.767996 295.144002,253.832005 294.696,252.792 C294.247998,251.751995 294.024,250.560007 294.024,249.216 C294.024,247.711992 294.295997,246.384006 294.84,245.232 C295.384003,244.079994 296.135995,243.120004 297.096,242.352 C298.056005,241.583996 299.183994,241.000002 300.48,240.6 C301.776006,240.199998 303.159993,240 304.632,240 C305.400004,240 306.167996,240.04 306.936,240.12 C307.704004,240.2 308.391997,240.272 309,240.336 C309.704004,240.432 310.391997,240.528 311.064,240.624 L311.064,249.6 C310.807999,249.568 310.520002,249.536 310.2,249.504 C309.943999,249.472 309.656002,249.44 309.336,249.408 C309.015998,249.376 308.680002,249.36 308.328,249.36 C308.135999,249.36 307.896001,249.368 307.608,249.384 C307.319999,249.4 307.048001,249.44 306.792,249.504 C306.535999,249.568 306.312001,249.679999 306.12,249.84 C305.927999,250.000001 305.832,250.223999 305.832,250.512 C305.832,250.768001 306.047998,251.087998 306.48,251.472 C306.912002,251.856002 307.439997,252.303997 308.064,252.816 C308.688003,253.328003 309.375996,253.919997 310.128,254.592 C310.880004,255.264003 311.567997,256.031996 312.192,256.896 C312.816003,257.760004 313.343998,258.735995 313.776,259.824 C314.208002,260.912005 314.424,262.127993 314.424,263.472 C314.424,264.880007 314.200002,266.199994 313.752,267.432 C313.303998,268.664006 312.608005,269.735995 311.664,270.648 C310.719995,271.560005 309.512007,272.279997 308.04,272.808 C306.567993,273.336003 304.82401,273.6 302.808,273.6 C301.591994,273.6 300.464005,273.544001 299.424,273.432 C298.383995,273.319999 297.464004,273.184001 296.664,273.024 C295.735995,272.863999 294.888004,272.672001 294.12,272.448 L294.12,262.848 Z"/>
    </g>
  </g>
</svg>
